{"title":"Everest (2015) HDTS LiNE AUDIO x264 - Exclusive","uid":12498729,"size":1399119334,"categoryP":"video","categoryS":"movies","magnet":"?xt=urn:btih:aaeb417140c87178a3109c55bfaf3f3071b0e6de&amp;dn=Everest+%282015%29+HDTS+LiNE+AUDIO+x264+-+Exclusive&amp;tr=udp%3A%2F%2Ftracker.leechers-paradise.org%3A6969&amp;tr=udp%3A%2F%2Fzer0day.ch%3A1337&amp;tr=udp%3A%2F%2Fopen.demonii.com%3A1337&amp;tr=udp%3A%2F%2Ftracker.coppersurfer.tk%3A6969&amp;tr=udp%3A%2F%2Fexodus.desync.com%3A6969","seeders":0,"leechers":1,"uploader":"tykoon123","files":2,"time":1443328189,"description":"\nhttp://www.imgpuppy.com/image/HOmo\r\n\r\nFormat : Matroska \r\nFormat version : Version 4 / Version 2 \r\nFile size : 1.30 GiB \r\nDuration : 1h 49mn \r\nOverall bit rate mode : Variable \r\nOverall bit rate : 1 705 Kbps \r\nEncoded date : UTC 2015-09-27 00:01:19 \r\nWriting application : mkvmerge v8.3.0 ('Over the Horizon') 32bit \r\nWriting library : libebml v1.3.1 + libmatroska v1.4.2 \r\nDURATION : 01:49:25.696000000 \r\nNUMBER_OF_FRAMES : 205178 \r\nNUMBER_OF_BYTES : 210102272 \r\n_STATISTICS_WRITING_APP : mkvmerge v8.3.0 ('Over the Horizon') 32bit \r\n_STATISTICS_WRITING_DATE_UTC : 2015-09-27 00:01:19 \r\n_STATISTICS_TAGS : BPS DURATION NUMBER_OF_FRAMES NUMBER_OF_BYTES \r\n\r\nVideo \r\nID : 1 \r\nFormat : AVC \r\nFormat/Info : Advanced Video Codec \r\nFormat profile :    \r\nFormat settings, CABAC : Yes \r\nFormat settings, ReFrames : 3 frames \r\nCodec ID : V_MPEG4/ISO/AVC \r\nDuration : 1h 49mn \r\nBit rate mode : Variable \r\nBit rate : 1 450 Kbps \r\nMaximum bit rate : 300 Mbps \r\nWidth : 712 pixels \r\nHeight : 336 pixels \r\nDisplay aspect ratio : 2.119 \r\nFrame rate mode : Constant \r\nFrame rate : 29.970 fps \r\nColor space : YUV \r\nChroma subsampling : 4:2:0 \r\nBit depth : 8 bits \r\nScan type : Progressive \r\nBits/(Pixel*Frame) : 0.202 \r\nStream size : 1.08 GiB (83%) \r\nWriting library : x264 core 146 r2538 121396c \r\nDefault : Yes \r\nForced : No \r\nColor primaries : BT.709 \r\nTransfer characteristics : BT.709 \r\nMatrix coefficients : BT.709 \r\n\r\nAudio \r\nID : 2 \r\nFormat : AC-3 \r\nFormat/Info : Audio Coding 3 \r\nMode extension : CM (complete main) \r\nFormat settings, Endianness : Big \r\nCodec ID : A_AC3 \r\nDuration : 1h 49mn \r\nBit rate mode : Constant \r\nBit rate : 256 Kbps \r\nChannel(s) : 2 channels \r\nChannel positions : Front: L R \r\nSampling rate : 48.0 KHz \r\nBit depth : 16 bits \r\nCompression mode : Lossy \r\nStream size : 200 MiB (15%) \r\nDefault : Yes \r\nForced : No \r\n\r\nScreens: \nhttp://www.imgpuppy.com/image/HaMF \nhttp://www.imgpuppy.com/image/HcXh \nhttp://www.imgpuppy.com/image/HvxZ \nhttp://www.imgpuppy.com/image/H6cm \nhttp://www.imgpuppy.com/image/HWrq \nhttp://www.imgpuppy.com/image/HDUD","torrent":{"xt":"urn:btih:aaeb417140c87178a3109c55bfaf3f3071b0e6de","amp;dn":"Everest+%282015%29+HDTS+LiNE+AUDIO+x264+-+Exclusive","amp;tr":["udp%3A%2F%2Ftracker.leechers-paradise.org%3A6969","udp%3A%2F%2Fzer0day.ch%3A1337","udp%3A%2F%2Fopen.demonii.com%3A1337","udp%3A%2F%2Ftracker.coppersurfer.tk%3A6969","udp%3A%2F%2Fexodus.desync.com%3A6969"],"infoHash":"aaeb417140c87178a3109c55bfaf3f3071b0e6de","infoHashBuffer":{"type":"Buffer","data":[170,235,65,113,64,200,113,120,163,16,156,85,191,175,63,48,113,176,230,222]},"announce":[],"urlList":[]}}